<?xml version="1.0" standalone="no"?>
<!DOCTYPE svg PUBLIC "-//W3C//DTD SVG 20010904//EN"
 "http://www.w3.org/TR/2001/REC-SVG-20010904/DTD/svg10.dtd">
<svg version="1.0" xmlns="http://www.w3.org/2000/svg"
 width="300.000000pt" height="64.000000pt" viewBox="0 0 300.000000 64.000000"
 preserveAspectRatio="xMidYMid meet">
<metadata>
Created by potrace 1.10, written by Peter Selinger 2001-2011
</metadata>
<g transform="translate(0.000000,64.000000) scale(0.100000,-0.100000)"
fill="#000000" stroke="none">
<path d="M2357 504 c-4 -4 -7 -23 -7 -41 0 -32 2 -34 28 -31 24 3 27 7 27 38
0 28 -4 36 -20 38 -12 2 -24 0 -28 -4z m38 -14 c3 -5 -1 -10 -10 -10 -9 0 -13
5 -10 10 3 6 8 10 10 10 2 0 7 -4 10 -10z m5 -40 c0 -5 -7 -10 -15 -10 -8 0
-15 5 -15 10 0 6 7 10 15 10 8 0 15 -4 15 -10z"/>
<path d="M2420 470 c0 -37 2 -40 28 -39 23 2 24 2 5 6 -26 5 -31 23 -8 23 21
0 19 18 -2 23 -17 4 -17 4 0 12 28 12 47 -2 47 -35 0 -16 5 -30 10 -30 6 0 10
15 10 34 0 19 6 37 13 39 6 3 -14 6 -45 6 l-58 1 0 -40z"/>
<path d="M2539 483 c-5 -16 -12 -34 -14 -40 -5 -16 11 -17 20 -3 5 8 11 7 21
-1 22 -18 27 -4 14 35 -14 43 -27 46 -41 9z m31 -13 c0 -5 -4 -10 -10 -10 -5
0 -10 5 -10 10 0 6 5 10 10 10 6 0 10 -4 10 -10z"/>
<path d="M28 312 c-2 -85 -1 -156 1 -158 2 -2 76 -4 163 -4 l159 0 -3 157 -3
157 -157 1 -157 0 -3 -153z m292 92 c0 -32 -1 -34 -16 -20 -18 19 -36 20 -51
5 -8 -8 -17 -8 -31 0 -26 14 -117 14 -143 1 -16 -9 -19 -22 -19 -85 0 -48 4
-77 13 -82 18 -12 220 -12 235 0 9 7 12 3 12 -17 0 -26 0 -26 -87 -28 -49 -1
-109 -3 -135 -4 l-48 -2 0 134 0 134 135 0 135 0 0 -36z m-97 -43 c6 -6 12
-36 13 -66 2 -48 0 -55 -16 -55 -16 0 -19 9 -22 53 l-3 52 -37 3 -38 3 0 -55
c0 -49 -2 -56 -20 -56 -18 0 -20 7 -20 68 l0 67 66 -2 c37 -1 72 -7 77 -12z
m71 -54 c1 -58 -1 -67 -16 -67 -16 0 -18 10 -18 71 0 59 3 70 16 67 13 -2 16
-17 18 -71z m-114 -27 c0 -33 -3 -40 -20 -40 -17 0 -20 7 -20 40 0 33 3 40 20
40 17 0 20 -7 20 -40z"/>
<path d="M903 450 c-24 -10 -37 -41 -28 -68 6 -20 44 -42 71 -42 10 0 14 -8
12 -22 -2 -19 -9 -23 -43 -24 -48 0 -57 -27 -11 -32 46 -6 76 7 87 35 15 39 2
60 -44 76 -56 18 -55 41 1 45 28 2 42 8 42 18 0 8 -6 14 -12 14 -7 0 -22 2
-33 5 -11 2 -30 0 -42 -5z"/>
<path d="M1543 450 c-31 -13 -43 -41 -43 -103 0 -65 19 -87 73 -87 55 0 77 27
77 94 0 79 -46 121 -107 96z m65 -92 c3 -54 1 -58 -22 -64 -14 -3 -29 -3 -34
0 -16 10 -23 72 -12 100 8 22 15 27 38 24 26 -3 27 -6 30 -60z"/>
<path d="M1676 444 c-10 -25 -7 -182 3 -188 5 -4 16 -3 25 0 12 5 16 21 17 63
l1 56 19 -57 c20 -57 40 -75 73 -62 13 5 16 22 16 99 0 95 -10 121 -35 94 -19
-20 -24 -101 -9 -135 11 -27 12 -22 13 54 1 47 5 82 11 82 6 0 10 -37 10 -91
0 -88 -1 -90 -22 -87 -18 2 -29 19 -53 83 l-30 80 -3 -82 c-4 -112 -22 -106
-22 7 0 84 1 90 20 90 14 0 26 -11 35 -32 16 -37 20 -23 5 16 -7 20 -17 26
-39 26 -17 0 -31 -6 -35 -16z"/>
<path d="M1862 448 c-7 -7 -12 -43 -12 -93 0 -50 5 -86 12 -93 14 -14 104 -16
113 -2 4 6 -15 10 -49 10 l-56 0 0 90 0 90 55 0 c65 0 74 -17 13 -22 -38 -3
-43 -6 -43 -28 0 -21 5 -26 33 -28 17 -2 32 -7 32 -12 0 -5 -15 -10 -32 -12
-28 -2 -33 -7 -33 -28 0 -23 4 -25 43 -26 l42 -1 -40 4 c-41 4 -59 33 -21 33
33 0 51 11 51 31 0 15 -7 19 -35 19 -24 0 -35 5 -35 15 0 10 10 15 34 15 35 0
63 21 51 40 -9 14 -108 13 -123 -2z"/>
<path d="M2010 440 c-39 -39 -18 -90 43 -105 42 -11 34 -35 -12 -35 -24 0 -41
-5 -44 -14 -8 -21 14 -36 55 -36 50 0 80 29 76 73 -2 26 -11 36 -43 52 -22 11
-42 21 -45 23 -12 8 27 20 51 15 19 -3 28 0 33 13 9 23 -9 34 -56 34 -25 0
-45 -7 -58 -20z m105 1 c3 -6 -14 -11 -37 -13 -62 -4 -63 -30 -4 -57 39 -17
46 -24 46 -48 0 -16 -5 -34 -12 -41 -14 -14 -98 -16 -98 -2 0 6 18 10 40 10
68 0 66 42 -3 66 -24 8 -33 17 -35 38 -2 15 2 34 9 42 13 16 84 19 94 5z"/>
<path d="M2154 449 c-9 -16 -5 -182 5 -192 22 -22 31 8 31 104 0 79 -3 99 -14
99 -8 0 -18 -5 -22 -11z m26 -89 c0 -53 -4 -90 -10 -90 -6 0 -10 37 -10 90 0
53 4 90 10 90 6 0 10 -37 10 -90z"/>
<path d="M2253 448 c-12 -15 -43 -137 -43 -167 0 -30 22 -37 38 -13 17 25 72
31 72 8 0 -17 23 -27 40 -16 10 6 10 14 1 36 l-11 29 4 -27 c4 -32 -13 -38
-21 -8 -4 16 -14 20 -44 20 -27 0 -39 -4 -39 -14 0 -16 -18 -31 -26 -23 -3 2
5 43 17 90 21 83 22 86 53 90 l31 4 -31 1 c-17 1 -36 -4 -41 -10z"/>
<path d="M400 355 c0 -78 3 -95 15 -95 11 0 15 11 15 39 0 37 1 39 32 37 24
-1 33 4 36 17 3 16 -1 17 -32 11 -35 -6 -36 -5 -36 24 0 29 3 31 42 34 23 2
43 9 46 16 3 9 -13 12 -57 12 l-61 0 0 -95z"/>
<path d="M567 443 c-3 -5 -12 -40 -21 -79 -8 -39 -18 -79 -22 -88 -4 -11 -1
-16 10 -16 9 0 20 10 25 22 11 31 70 32 78 1 6 -27 33 -31 33 -5 0 9 -4 33 -9
52 -6 19 -15 54 -21 78 -10 37 -14 42 -40 42 -16 0 -31 -3 -33 -7z m50 -68
l10 -45 -29 0 c-23 0 -28 4 -24 18 3 9 8 29 12 45 9 39 19 33 31 -18z"/>
<path d="M700 356 c0 -79 3 -96 15 -96 12 0 15 16 16 83 l1 82 26 -80 c24 -72
30 -80 52 -80 25 0 25 1 28 93 2 76 0 92 -12 92 -12 0 -16 -17 -18 -77 l-3
-78 -25 75 c-23 67 -29 75 -53 78 l-27 3 0 -95z"/>
<path d="M1080 354 c0 -86 2 -95 18 -92 14 3 17 17 20 96 3 87 2 92 -18 92
-19 0 -20 -6 -20 -96z"/>
<path d="M1157 444 c-4 -4 -7 -47 -7 -96 0 -82 1 -88 21 -88 19 0 20 5 17 80
-2 43 -1 76 3 72 3 -4 15 -40 28 -79 21 -69 24 -73 52 -73 l29 0 0 96 c0 86
-2 95 -17 92 -15 -3 -18 -14 -16 -77 1 -40 -1 -71 -4 -67 -4 4 -16 37 -28 74
-18 57 -24 67 -46 70 -13 2 -28 0 -32 -4z"/>
<path d="M1330 355 l0 -95 41 0 c41 0 78 14 91 34 4 6 8 36 8 67 0 72 -17 89
-88 89 l-52 0 0 -95z m98 53 c13 -13 16 -76 4 -94 -4 -6 -19 -14 -34 -18 l-28
-6 0 65 c0 61 1 65 23 65 13 0 28 -5 35 -12z"/>
<path d="M2321 435 c0 -5 6 -32 13 -60 8 -27 14 -41 14 -30 0 21 -25 107 -27
90z"/>
<path d="M2272 391 c-17 -55 -15 -61 18 -61 17 0 30 3 30 6 0 19 -24 94 -30
94 -4 0 -12 -17 -18 -39z m22 -23 c5 -21 3 -28 -9 -28 -17 0 -18 4 -9 38 8 27
9 26 18 -10z"/>
<path d="M400 191 c0 -33 3 -41 19 -41 48 0 56 73 9 78 -27 3 -28 1 -28 -37z
m45 4 c0 -10 -6 -20 -12 -22 -8 -3 -13 5 -13 22 0 17 5 25 13 23 6 -3 12 -13
12 -23z"/>
<path d="M473 190 c0 -25 2 -35 4 -22 2 12 2 32 0 45 -2 12 -4 2 -4 -23z"/>
<path d="M490 195 c0 -23 6 -38 15 -41 23 -9 46 16 43 45 -2 20 -9 27 -30 29
-26 3 -28 1 -28 -33z m45 0 c0 -10 -6 -20 -12 -22 -8 -3 -13 5 -13 22 0 17 5
25 13 23 6 -3 12 -13 12 -23z"/>
<path d="M563 190 c0 -25 2 -35 4 -22 2 12 2 32 0 45 -2 12 -4 2 -4 -23z"/>
<path d="M591 188 c1 -24 3 -35 6 -25 6 21 12 22 28 0 10 -14 12 -10 11 23 -1
32 -5 40 -23 42 -21 3 -23 0 -22 -40z m37 20 c-6 -18 -28 -21 -28 -4 0 9 7 16
16 16 9 0 14 -5 12 -12z"/>
<path d="M653 190 c0 -25 2 -35 4 -22 2 12 2 32 0 45 -2 12 -4 2 -4 -23z"/>
<path d="M682 190 c0 -35 2 -40 7 -20 l7 25 8 -22 c8 -25 31 -31 39 -10 3 9 9
9 27 -1 20 -12 21 -12 16 7 -3 12 -9 30 -12 41 -8 29 -34 25 -34 -4 0 -14 -5
-28 -10 -31 -16 -10 -24 23 -10 40 9 11 9 15 1 15 -6 0 -15 -8 -18 -17 -6 -15
-7 -15 -14 3 -5 13 -7 4 -7 -26z m88 10 c0 -5 -4 -10 -10 -10 -5 0 -10 5 -10
10 0 6 5 10 10 10 6 0 10 -4 10 -10z"/>
<path d="M801 193 c1 -34 2 -35 9 -13 4 14 8 20 9 14 1 -5 8 -19 16 -30 13
-18 14 -16 13 26 0 40 -1 42 -8 15 l-7 -30 -7 28 c-12 39 -26 33 -25 -10z"/>
<path d="M887 223 c-12 -11 -8 -50 7 -62 29 -24 65 14 46 50 -10 19 -40 26
-53 12z m43 -28 c0 -16 -6 -25 -15 -25 -9 0 -15 9 -15 25 0 16 6 25 15 25 9 0
15 -9 15 -25z"/>
<path d="M962 193 c-2 -37 1 -43 18 -43 11 0 20 5 20 10 0 6 -6 10 -14 10 -9
0 -16 13 -19 33 -3 28 -4 26 -5 -10z"/>
<path d="M1000 206 c0 -37 10 -56 31 -56 10 0 19 5 19 10 0 6 -7 10 -15 10
-21 0 -19 18 3 23 16 4 16 5 0 6 -10 0 -18 5 -18 10 0 5 8 12 18 14 10 3 6 5
-10 6 -23 1 -28 -3 -28 -23z"/>
<path d="M1060 195 c0 -19 5 -35 11 -35 6 0 9 7 5 15 -3 10 1 15 14 15 11 0
20 -9 23 -22 2 -13 4 -3 4 22 1 25 -1 37 -4 28 -2 -10 -13 -18 -23 -18 -13 0
-17 5 -14 15 4 8 1 15 -5 15 -6 0 -11 -16 -11 -35z"/>
<path d="M1159 228 c-6 -24 -5 -70 2 -74 5 -3 9 0 9 7 0 6 8 18 18 25 16 13
16 13 0 14 -10 0 -18 4 -18 9 0 5 8 12 18 14 13 4 11 5 -5 6 -13 0 -23 0 -24
-1z"/>
<path d="M1216 206 c-3 -13 -9 -32 -12 -41 -6 -15 -4 -16 16 -3 16 9 24 10 27
2 2 -7 13 -10 23 -7 15 4 19 11 15 32 -5 24 -4 23 12 -6 22 -44 33 -41 33 7 0
22 -5 40 -10 40 -6 0 -8 -12 -5 -27 l6 -28 -16 28 c-21 36 -35 34 -36 -5 l-1
-33 -10 33 c-13 38 -33 42 -42 8z m28 -1 c3 -8 1 -15 -4 -15 -6 0 -10 7 -10
15 0 8 2 15 4 15 2 0 6 -7 10 -15z"/>
<path d="M1340 215 c0 -9 7 -18 15 -21 20 -8 19 -24 -2 -24 -13 0 -14 -3 -5
-12 10 -10 16 -8 30 5 16 17 16 19 -7 37 l-25 18 25 5 c23 4 23 4 -3 6 -19 1
-28 -4 -28 -14z"/>
<path d="M1440 201 c0 -37 24 -59 45 -41 17 14 21 70 5 70 -5 0 -10 -13 -10
-30 0 -16 -4 -30 -10 -30 -5 0 -10 14 -10 30 0 17 -4 30 -10 30 -5 0 -10 -13
-10 -29z"/>
<path d="M1511 188 l2 -43 6 35 6 35 12 -33 c14 -39 33 -34 33 9 0 16 5 29 10
29 6 0 10 -13 10 -30 0 -16 5 -30 10 -30 6 0 10 14 10 30 0 17 5 30 10 30 6 0
10 -11 10 -24 0 -33 25 -53 45 -36 17 14 21 70 5 70 -5 0 -10 -14 -10 -31 0
-38 -24 -35 -28 4 -3 25 -7 27 -48 27 -43 0 -44 -1 -39 -27 l6 -28 -16 28
c-23 39 -35 33 -34 -15z"/>
<path d="M1701 192 c-1 -25 3 -41 9 -37 5 3 7 13 4 23 -4 11 2 8 15 -8 22 -27
28 -21 11 10 -7 13 -7 21 0 25 13 8 13 25 0 25 -5 0 -10 -7 -10 -15 0 -21 -18
-19 -23 3 -3 9 -5 -2 -6 -26z"/>
<path d="M1780 211 c0 -10 10 -22 23 -26 l22 -8 -22 -4 c-25 -5 -32 -23 -9
-23 18 0 39 27 31 40 -3 5 -13 10 -21 10 -23 0 -16 18 9 23 19 4 18 4 -5 6
-21 1 -28 -4 -28 -18z"/>
<path d="M1840 190 c0 -33 3 -40 19 -40 11 0 23 5 26 10 3 6 -3 10 -14 10 -26
0 -28 17 -3 23 16 4 16 5 0 6 -26 2 -22 19 5 24 19 4 18 4 -5 6 -26 1 -28 -2
-28 -39z"/>
<path d="M1901 188 c1 -40 2 -41 9 -13 6 24 8 26 9 8 0 -13 5 -23 10 -23 5 0
13 10 17 23 8 21 8 21 15 -8 6 -27 7 -26 8 13 1 48 -13 55 -27 15 l-10 -28 -7
28 c-11 41 -25 32 -24 -15z"/>
<path d="M1980 201 c0 -37 24 -59 45 -41 17 14 21 70 5 70 -5 0 -10 -14 -10
-31 0 -20 -4 -29 -12 -26 -7 2 -12 16 -10 31 1 14 -2 26 -8 26 -5 0 -10 -13
-10 -29z"/>
<path d="M2056 213 c-2 -10 -8 -29 -12 -43 -6 -22 -5 -23 9 -11 9 7 24 10 33
7 13 -5 15 -2 10 16 -3 13 -6 29 -6 36 0 19 -28 14 -34 -5z m24 -8 c0 -8 -4
-15 -10 -15 -5 0 -7 7 -4 15 4 8 8 15 10 15 2 0 4 -7 4 -15z"/>
<path d="M2130 188 l0 -42 20 22 c24 26 25 29 3 35 -15 3 -14 6 7 15 l25 11
-27 0 c-26 1 -28 -2 -28 -41z"/>
<path d="M2197 223 c-3 -5 -8 -23 -12 -41 -7 -32 -6 -33 14 -20 18 11 23 11
32 -2 8 -12 9 -9 5 10 -3 14 -6 33 -6 43 0 17 -25 24 -33 10z m23 -18 c0 -8
-4 -15 -10 -15 -5 0 -7 7 -4 15 4 8 8 15 10 15 2 0 4 -7 4 -15z"/>
<path d="M2252 188 c1 -41 1 -41 5 -8 l5 35 14 -33 c7 -18 18 -31 24 -27 14 8
13 75 -1 75 -7 0 -9 -10 -7 -25 3 -14 3 -25 1 -25 -2 0 -8 11 -13 25 -15 39
-30 29 -28 -17z"/>
<path d="M2320 210 c0 -11 7 -20 15 -20 8 0 15 -4 15 -10 0 -5 -7 -10 -15 -10
-8 0 -15 -4 -15 -10 0 -15 26 -12 40 5 14 16 6 35 -16 35 -23 0 -16 18 9 23
19 4 18 4 -5 6 -22 1 -28 -4 -28 -19z"/>
<path d="M2395 220 c-8 -14 3 -30 21 -30 8 0 14 -4 14 -10 0 -5 -7 -10 -15
-10 -8 0 -15 -5 -15 -11 0 -6 8 -9 18 -7 22 4 30 48 8 48 -22 0 -20 17 2 23
13 4 12 5 -5 6 -12 0 -25 -3 -28 -9z"/>
<path d="M2452 193 c2 -31 7 -39 26 -41 12 -2 22 1 22 7 0 6 -7 11 -15 11 -21
0 -19 18 3 23 16 4 16 5 0 6 -30 2 -20 21 10 21 26 0 28 -3 24 -29 -2 -16 1
-32 7 -35 7 -5 11 5 11 28 0 19 6 37 13 39 6 3 -14 6 -46 6 l-58 1 3 -37z"/>
<path d="M2570 204 c-10 -26 -13 -71 -3 -46 6 15 43 16 43 0 0 -6 3 -9 6 -5 8
8 -16 77 -27 77 -5 0 -14 -12 -19 -26z m25 -4 c3 -5 1 -10 -4 -10 -6 0 -11 5
-11 10 0 6 2 10 4 10 3 0 8 -4 11 -10z"/>
<path d="M2631 188 l2 -43 7 35 c4 19 8 28 9 19 0 -8 7 -24 15 -34 12 -17 14
-15 18 23 2 23 0 42 -4 42 -5 0 -8 -10 -9 -22 l0 -23 -11 23 c-17 34 -28 26
-27 -20z"/>
<path d="M2706 218 c-3 -7 -7 -25 -10 -41 -6 -26 -5 -27 14 -15 17 11 22 10
31 -2 8 -12 9 -9 5 10 -3 14 -6 33 -6 43 0 19 -29 24 -34 5z m24 -13 c0 -8 -4
-15 -10 -15 -5 0 -7 7 -4 15 4 8 8 15 10 15 2 0 4 -7 4 -15z"/>
<path d="M2763 190 c0 -25 2 -35 4 -22 5 28 33 29 33 1 0 -11 5 -17 10 -14 6
3 10 22 10 41 0 19 -4 34 -10 34 -5 0 -10 -7 -10 -15 0 -21 -28 -19 -33 3 -3
9 -5 -3 -4 -28z"/>
<path d="M2856 206 c-3 -13 -9 -32 -13 -43 -6 -15 -4 -16 9 -5 9 7 27 10 47 6
30 -6 31 -6 31 30 0 20 -5 36 -11 36 -7 0 -9 -11 -5 -30 3 -16 1 -30 -3 -30
-5 0 -12 14 -16 30 -8 36 -30 39 -39 6z m28 -1 c3 -8 1 -15 -4 -15 -6 0 -10 7
-10 15 0 8 2 15 4 15 2 0 6 -7 10 -15z"/>
<path d="M2941 188 c1 -24 3 -35 6 -25 6 21 12 22 28 0 11 -14 13 -11 13 25 1
38 -2 42 -24 42 -22 0 -24 -4 -23 -42z m37 20 c-6 -18 -28 -21 -28 -4 0 9 7
16 16 16 9 0 14 -5 12 -12z"/>
<path d="M1390 155 c0 -8 5 -15 10 -15 6 0 10 7 10 15 0 8 -4 15 -10 15 -5 0
-10 -7 -10 -15z"/>
</g>
</svg>
